<?xml version="1.0" encoding="UTF-8" standalone="no"?>
<svg width="96px" height="50px" viewBox="0 0 96 50" version="1.1" xmlns="http://www.w3.org/2000/svg" xmlns:xlink="http://www.w3.org/1999/xlink">
    <!-- Generator: Sketch 46.2 (44496) - http://www.bohemiancoding.com/sketch -->
    <title>Artboard 2</title>
    <desc>Created with Sketch.</desc>
    <defs>
        <path d="M28.5,21.8 C28.5,25.1200166 28.100004,28.6399814 27.3,32.36 C26.3399952,36.960023 25.0200084,40.1399912 23.34,41.9 C21.2599896,44.100011 18.7000152,45.2 15.66,45.2 C12.9399864,45.2 10.5600102,44.3800082 8.52,42.74 C6.2799888,40.8999908 4.7400042,38.4000158 3.9,35.24 C3.299997,32.9999888 3,30.0000188 3,26.24 C3,24.3999908 3.1199988,21.6300185 3.36,17.93 C3.6000012,14.2299815 3.72,11.4600092 3.72,9.62 C3.72,9.2999984 3.6000012,8.8300031 3.36,8.21 C3.1199988,7.5899969 3,7.1200016 3,6.8 C3,5.799995 3.799992,4.9800032 5.4,4.34 C6.6400062,3.8199974 7.859994,3.56 9.06,3.56 C10.4200068,3.56 11.1,3.9799958 11.1,4.82 C11.1,5.2600022 10.900002,5.8999958 10.5,6.74 C10.099998,7.5800042 9.9,8.2399976 9.9,8.72 C9.9,10.320008 9.700002,12.7399838 9.3,15.98 C8.899998,19.2200162 8.7,21.6599918 8.7,23.3 L8.7,30.74 C8.7,33.0200114 9.1399956,35.0399912 10.02,36.8 C11.1000054,39.0400112 12.6799896,40.16 14.76,40.16 C18.76002,40.16 21.4199934,36.4800368 22.74,29.12 C23.340003,25.6799828 23.64,20.3400362 23.64,13.1 C23.64,10.4599868 23.240004,8.3200082 22.44,6.68 C22.1999988,6.1999976 22.08,5.8200014 22.08,5.54 C22.08,4.8199964 22.3499973,4.1200034 22.89,3.44 C23.4300027,2.7599966 24.0599964,2.42 24.78,2.42 C25.5400038,2.42 26.3499957,2.6999972 27.21,3.26 C28.0700043,3.8200028 28.5,4.4599964 28.5,5.18 L28.5,21.8 Z M54.24,32 C54.24,35.600018 53.340009,38.6799872 51.54,41.24 C49.4599896,44.1600146 46.7000172,45.62 43.26,45.62 C39.7399824,45.62 37.080009,44.420012 35.28,42.02 C33.6399918,39.8999894 32.82,37.0200182 32.82,33.38 C32.82,29.779982 33.719991,26.380016 35.52,23.18 C37.6000104,19.379981 40.2999834,17.48 43.62,17.48 C44.6600052,17.48 45.9599922,17.9399954 47.52,18.86 C52.0000224,21.5400134 54.24,25.9199696 54.24,32 Z M48.96,31.88 C48.96,25.7599694 47.4800148,22.7 44.52,22.7 C42.3999894,22.7 40.8000054,23.999987 39.72,26.6 C38.919996,28.5600098 38.52,30.7799876 38.52,33.26 C38.52,38.5800266 40.0999842,41.24 43.26,41.24 C45.3000102,41.24 46.819995,40.140011 47.82,37.94 C48.5800038,36.2599916 48.96,34.2400118 48.96,31.88 Z M93.36,16.52 C93.36,21.0800228 92.560008,26.2399712 90.96,32 C88.8399894,39.5600378 86.180016,43.34 82.98,43.34 C80.179986,43.34 78.1400064,41.5600178 76.86,38 C76.1399964,35.99999 75.6000018,33.0400196 75.24,29.12 C74.2799952,33.6400226 73.5200028,36.6599924 72.96,38.18 C71.4799926,42.3000206 69.6800106,44.36 67.56,44.36 C65.9999922,44.36 64.5800064,43.7000066 63.3,42.38 C61.6199916,40.6599914 60.3600042,35.2600454 59.52,26.18 C58.919997,19.979969 58.62,14.0000288 58.62,8.24 C58.62,5.1599846 59.9399868,3.62 62.58,3.62 C64.9400118,3.62 66.12,4.1599946 66.12,5.24 C66.12,5.7200024 65.9700015,6.2299973 65.67,6.77 C65.3699985,7.3100027 65.0800014,7.8399974 64.8,8.36 C64.2799974,9.4000052 64.02,11.5799834 64.02,14.9 C64.02,30.2200766 65.1999882,37.88 67.56,37.88 C68.4000042,37.88 69.419994,34.9000298 70.62,28.94 C72.0600072,21.8999648 72.78,16.5000188 72.78,12.74 C72.78,12.1799972 73.1599962,11.6100029 73.92,11.03 C74.6800038,10.4499971 75.359997,10.16 75.96,10.16 C77.160006,10.16 78.2499951,10.5799958 79.23,11.42 C80.2100049,12.2600042 80.7599994,13.279994 80.88,14.48 C80.079996,15.6400058 79.68,17.7799844 79.68,20.9 C79.68,32.1400562 80.7399894,37.76 82.86,37.76 C84.9000102,37.76 86.4799944,34.560032 87.6,28.16 C88.3600038,23.7199778 88.74,19.6400186 88.74,15.92 C88.74,14.3599922 88.6500009,13.2000038 88.47,12.44 C88.2899991,11.6799962 87.8400036,10.5400076 87.12,9.02 C86.4799968,7.7399936 86.16,6.7800032 86.16,6.14 C86.16,5.1799952 86.3799978,4.300004 86.82,3.5 C87.3800028,2.499995 88.0999956,2 88.98,2 C90.2200062,2 91.3199952,4.1199788 92.28,8.36 C93.0000036,11.6800166 93.36,14.3999894 93.36,16.52 Z" id="path-1"></path>
        <filter x="-5.5%" y="-9.2%" width="111.1%" height="122.9%" filterUnits="objectBoundingBox" id="filter-2">
            <feOffset dx="0" dy="1" in="SourceAlpha" result="shadowOffsetOuter1"></feOffset>
            <feGaussianBlur stdDeviation="1.5" in="shadowOffsetOuter1" result="shadowBlurOuter1"></feGaussianBlur>
            <feColorMatrix values="0 0 0 0 0   0 0 0 0 0   0 0 0 0 0  0 0 0 0.5 0" type="matrix" in="shadowBlurOuter1"></feColorMatrix>
        </filter>
    </defs>
    <g id="Page-1" stroke="none" stroke-width="1" fill="none" fill-rule="evenodd">
        <g id="Artboard-2">
            <g id="UoW">
                <use fill="black" fill-opacity="1" filter="url(#filter-2)" xlink:href="#path-1"></use>
                <use fill="#EFE029" fill-rule="evenodd" xlink:href="#path-1"></use>
            </g>
        </g>
    </g>
</svg>